<svg width="56" height="56" viewBox="0 0 56 56" fill="none" xmlns="http://www.w3.org/2000/svg">
<path d="M11.676 13.9976H49.0093V18.6643H11.676V13.9976ZM16.3427 4.66663H44.3427V9.33329H16.3427V4.66663ZM48.993 23.3123H11.6737C11.0584 23.3138 10.4494 23.4365 9.88157 23.6734C9.3137 23.9103 8.79805 24.2567 8.36406 24.6928C7.93007 25.129 7.58624 25.6464 7.3522 26.2154C7.11815 26.7844 6.99848 27.394 7.00001 28.0093V46.6153C6.99848 47.2306 7.11815 47.8401 7.3522 48.4092C7.58624 48.9782 7.93007 49.4956 8.36406 49.9317C8.79805 50.3679 9.3137 50.7143 9.88157 50.9512C10.4494 51.1881 11.0584 51.3108 11.6737 51.3123H48.993C49.6083 51.3108 50.2173 51.1881 50.7851 50.9512C51.353 50.7143 51.8686 50.3679 52.3026 49.9317C52.7366 49.4956 53.0805 48.9782 53.3145 48.4092C53.5485 47.8401 53.6682 47.2306 53.6667 46.6153V28.0093C53.6682 27.394 53.5485 26.7844 53.3145 26.2154C53.0805 25.6464 52.7366 25.129 52.3026 24.6928C51.8686 24.2567 51.353 23.9103 50.7851 23.6734C50.2173 23.4365 49.6083 23.3138 48.993 23.3123ZM49 46.6666H11.6667V28H49V46.6666Z" fill="#EB0028"/>
<path d="M28.0094 44.3124H32.6761V39.6714H37.3428V34.9954H32.6761V30.3124H28.0094V35.0024H23.3428V39.6714H28.0094V44.3124Z" fill="#EB0028"/>
</svg>
