<svg width="56" height="56" viewBox="0 0 56 56" fill="none" xmlns="http://www.w3.org/2000/svg">
<path fill-rule="evenodd" clip-rule="evenodd" d="M32.6663 16.3334C32.0475 16.3334 31.454 16.5792 31.0164 17.0168C30.5788 17.4544 30.333 18.0479 30.333 18.6667V37.3334C30.333 37.9522 30.5788 38.5457 31.0164 38.9833C31.454 39.4209 32.0475 39.6667 32.6663 39.6667H41.9997C42.6185 39.6667 43.212 39.4209 43.6496 38.9833C44.0872 38.5457 44.333 37.9522 44.333 37.3334V18.6667C44.333 18.0479 44.0872 17.4544 43.6496 17.0168C43.212 16.5792 42.6185 16.3334 41.9997 16.3334H32.6663ZM39.6663 21H34.9997V35H39.6663V21Z" fill="#EB0028"/>
<path d="M13.9993 16.3334C13.3805 16.3334 12.787 16.5792 12.3494 17.0168C11.9118 17.4544 11.666 18.0479 11.666 18.6667C11.666 19.2855 11.9118 19.879 12.3494 20.3166C12.787 20.7542 13.3805 21 13.9993 21H23.3327C23.9515 21 24.545 20.7542 24.9826 20.3166C25.4202 19.879 25.666 19.2855 25.666 18.6667C25.666 18.0479 25.4202 17.4544 24.9826 17.0168C24.545 16.5792 23.9515 16.3334 23.3327 16.3334H13.9993ZM13.9993 25.6667C13.3805 25.6667 12.787 25.9125 12.3494 26.3501C11.9118 26.7877 11.666 27.3812 11.666 28C11.666 28.6189 11.9118 29.2124 12.3494 29.65C12.787 30.0875 13.3805 30.3334 13.9993 30.3334H23.3327C23.9515 30.3334 24.545 30.0875 24.9826 29.65C25.4202 29.2124 25.666 28.6189 25.666 28C25.666 27.3812 25.4202 26.7877 24.9826 26.3501C24.545 25.9125 23.9515 25.6667 23.3327 25.6667H13.9993ZM11.666 37.3334C11.666 36.7145 11.9118 36.121 12.3494 35.6835C12.787 35.2459 13.3805 35 13.9993 35H23.3327C23.9515 35 24.545 35.2459 24.9826 35.6835C25.4202 36.121 25.666 36.7145 25.666 37.3334C25.666 37.9522 25.4202 38.5457 24.9826 38.9833C24.545 39.4209 23.9515 39.6667 23.3327 39.6667H13.9993C13.3805 39.6667 12.787 39.4209 12.3494 38.9833C11.9118 38.5457 11.666 37.9522 11.666 37.3334Z" fill="#EB0028"/>
<path fill-rule="evenodd" clip-rule="evenodd" d="M9.33301 7C7.47649 7 5.69601 7.7375 4.38326 9.05025C3.07051 10.363 2.33301 12.1435 2.33301 14V42C2.33301 43.8565 3.07051 45.637 4.38326 46.9497C5.69601 48.2625 7.47649 49 9.33301 49H46.6663C48.5229 49 50.3033 48.2625 51.6161 46.9497C52.9288 45.637 53.6663 43.8565 53.6663 42V14C53.6663 12.1435 52.9288 10.363 51.6161 9.05025C50.3033 7.7375 48.5229 7 46.6663 7H9.33301ZM46.6663 11.6667H9.33301C8.71417 11.6667 8.12068 11.9125 7.68309 12.3501C7.24551 12.7877 6.99967 13.3812 6.99967 14V42C6.99967 42.6188 7.24551 43.2123 7.68309 43.6499C8.12068 44.0875 8.71417 44.3333 9.33301 44.3333H46.6663C47.2852 44.3333 47.8787 44.0875 48.3163 43.6499C48.7538 43.2123 48.9997 42.6188 48.9997 42V14C48.9997 13.3812 48.7538 12.7877 48.3163 12.3501C47.8787 11.9125 47.2852 11.6667 46.6663 11.6667Z" fill="#EB0028"/>
</svg>
