<svg width="56" height="56" viewBox="0 0 56 56" fill="none" xmlns="http://www.w3.org/2000/svg">
<path d="M53.6667 4.66663H2.33333C1.71449 4.66663 1.121 4.91246 0.683417 5.35004C0.245833 5.78763 0 6.38112 0 6.99996L0 49C0 49.6188 0.245833 50.2123 0.683417 50.6499C1.121 51.0875 1.71449 51.3333 2.33333 51.3333H53.6667C54.2855 51.3333 54.879 51.0875 55.3166 50.6499C55.7542 50.2123 56 49.6188 56 49V6.99996C56 6.38112 55.7542 5.78763 55.3166 5.35004C54.879 4.91246 54.2855 4.66663 53.6667 4.66663ZM51.3333 46.6666H46.6667V44.3333H35V46.6666H4.66667V9.33329H51.3333V46.6666ZM24.01 22.6566C24.01 21.5984 24.4304 20.5835 25.1786 19.8353C25.9269 19.087 26.9418 18.6666 28 18.6666C30.2167 18.6666 31.99 20.4633 31.99 22.6566C31.99 24.8733 30.2167 26.67 28 26.67C25.7833 26.67 24.01 24.8733 24.01 22.6566ZM13.3233 26.3433C13.3233 24.6866 14.6767 23.3333 16.3333 23.3333C17.1316 23.3333 17.8972 23.6504 18.4617 24.2149C19.0262 24.7794 19.3433 25.545 19.3433 26.3433C19.3433 28 17.99 29.33 16.3333 29.33C14.6767 29.33 13.3233 28 13.3233 26.3433ZM36.6567 26.3433C36.6567 25.545 36.9738 24.7794 37.5383 24.2149C38.1028 23.6504 38.8684 23.3333 39.6667 23.3333C40.465 23.3333 41.2306 23.6504 41.7951 24.2149C42.3595 24.7794 42.6767 25.545 42.6767 26.3433C42.6767 28 41.3233 29.33 39.6667 29.33C38.01 29.33 36.6567 28 36.6567 26.3433ZM46.6667 35.3266V37.3333H9.33333V35.3266C9.33333 33.1333 12.95 31.3366 16.3333 31.3366C17.6167 31.3366 18.9233 31.5933 20.0667 32.0366C21.8167 30.4266 24.9667 29.33 28 29.33C31.0333 29.33 34.1833 30.4266 35.9333 32.0366C37.0767 31.5933 38.3833 31.3366 39.6667 31.3366C43.05 31.3366 46.6667 33.1333 46.6667 35.3266Z" fill="#EB0028"/>
</svg>
