<svg width="50" height="56" viewBox="0 0 50 56" fill="none" xmlns="http://www.w3.org/2000/svg">
<path d="M9.25 3.5C10.1783 3.5 11.0685 3.13125 11.7249 2.47487C12.3813 1.8185 12.75 0.928258 12.75 0H16.25C16.25 0.928258 16.6187 1.8185 17.2751 2.47487C17.9315 3.13125 18.8217 3.5 19.75 3.5C20.6783 3.5 21.5685 3.13125 22.2249 2.47487C22.8813 1.8185 23.25 0.928258 23.25 0H26.75C26.75 0.928258 27.1187 1.8185 27.7751 2.47487C28.4315 3.13125 29.3217 3.5 30.25 3.5C31.1783 3.5 32.0685 3.13125 32.7249 2.47487C33.3812 1.8185 33.75 0.928258 33.75 0H37.25C37.25 0.928258 37.6188 1.8185 38.2751 2.47487C38.9315 3.13125 39.8217 3.5 40.75 3.5C41.6783 3.5 42.5685 3.13125 43.2249 2.47487C43.8812 1.8185 44.25 0.928258 44.25 0H49.5V3.5C48.5717 3.5 47.6815 3.86875 47.0251 4.52513C46.3688 5.1815 46 6.07174 46 7C46 7.92826 46.3688 8.8185 47.0251 9.47487C47.6815 10.1313 48.5717 10.5 49.5 10.5V14C48.5717 14 47.6815 14.3687 47.0251 15.0251C46.3688 15.6815 46 16.5717 46 17.5C46 18.4283 46.3688 19.3185 47.0251 19.9749C47.6815 20.6313 48.5717 21 49.5 21V24.5C48.5717 24.5 47.6815 24.8687 47.0251 25.5251C46.3688 26.1815 46 27.0717 46 28C46 28.9283 46.3688 29.8185 47.0251 30.4749C47.6815 31.1313 48.5717 31.5 49.5 31.5V35C48.5717 35 47.6815 35.3688 47.0251 36.0251C46.3688 36.6815 46 37.5717 46 38.5C46 39.4283 46.3688 40.3185 47.0251 40.9749C47.6815 41.6312 48.5717 42 49.5 42V45.5C48.5717 45.5 47.6815 45.8688 47.0251 46.5251C46.3688 47.1815 46 48.0717 46 49C46 49.9283 46.3688 50.8185 47.0251 51.4749C47.6815 52.1312 48.5717 52.5 49.5 52.5V56H44.25C44.25 55.0717 43.8812 54.1815 43.2249 53.5251C42.5685 52.8688 41.6783 52.5 40.75 52.5C39.8217 52.5 38.9315 52.8688 38.2751 53.5251C37.6188 54.1815 37.25 55.0717 37.25 56H33.75C33.75 55.0717 33.3812 54.1815 32.7249 53.5251C32.0685 52.8688 31.1783 52.5 30.25 52.5C29.3217 52.5 28.4315 52.8688 27.7751 53.5251C27.1187 54.1815 26.75 55.0717 26.75 56H23.25C23.25 55.0717 22.8813 54.1815 22.2249 53.5251C21.5685 52.8688 20.6783 52.5 19.75 52.5C18.8217 52.5 17.9315 52.8688 17.2751 53.5251C16.6187 54.1815 16.25 55.0717 16.25 56H12.75C12.75 55.0717 12.3813 54.1815 11.7249 53.5251C11.0685 52.8688 10.1783 52.5 9.25 52.5C8.32174 52.5 7.4315 52.8688 6.77513 53.5251C6.11875 54.1815 5.75 55.0717 5.75 56H0.5V52.5C1.42826 52.5 2.3185 52.1312 2.97487 51.4749C3.63125 50.8185 4 49.9283 4 49C4 48.0717 3.63125 47.1815 2.97487 46.5251C2.3185 45.8688 1.42826 45.5 0.5 45.5V42C1.42826 42 2.3185 41.6312 2.97487 40.9749C3.63125 40.3185 4 39.4283 4 38.5C4 37.5717 3.63125 36.6815 2.97487 36.0251C2.3185 35.3688 1.42826 35 0.5 35V31.5C1.42826 31.5 2.3185 31.1313 2.97487 30.4749C3.63125 29.8185 4 28.9283 4 28C4 27.0717 3.63125 26.1815 2.97487 25.5251C2.3185 24.8687 1.42826 24.5 0.5 24.5V21C1.42826 21 2.3185 20.6313 2.97487 19.9749C3.63125 19.3185 4 18.4283 4 17.5C4 16.5717 3.63125 15.6815 2.97487 15.0251C2.3185 14.3687 1.42826 14 0.5 14V10.5C1.42826 10.5 2.3185 10.1313 2.97487 9.47487C3.63125 8.8185 4 7.92826 4 7C4 6.07174 3.63125 5.1815 2.97487 4.52513C2.3185 3.86875 1.42826 3.5 0.5 3.5V0H5.75C5.75 0.928258 6.11875 1.8185 6.77513 2.47487C7.4315 3.13125 8.32174 3.5 9.25 3.5ZM7.5 10.5V45.5C7.5 46.4283 7.86875 47.3185 8.52513 47.9749C9.1815 48.6312 10.0717 49 11 49H39C39.9283 49 40.8185 48.6312 41.4749 47.9749C42.1312 47.3185 42.5 46.4283 42.5 45.5V10.5C42.5 9.57174 42.1312 8.6815 41.4749 8.02513C40.8185 7.36875 39.9283 7 39 7H11C10.0717 7 9.1815 7.36875 8.52513 8.02513C7.86875 8.6815 7.5 9.57174 7.5 10.5Z" fill="#EB0028"/>
</svg>
