<svg width="52" height="38" viewBox="0 0 52 38" fill="none" xmlns="http://www.w3.org/2000/svg">
<path d="M0.333008 0.333374H51.6663V13.0944L50.3363 13.7267C49.3374 14.1991 48.4932 14.9456 47.902 15.8792C47.3108 16.8127 46.9969 17.895 46.9969 19C46.9969 20.1051 47.3108 21.1873 47.902 22.1209C48.4932 23.0545 49.3374 23.8009 50.3363 24.2734L51.6663 24.9057V37.6667H0.333008V24.9057L1.66301 24.2734C2.66195 23.8009 3.50615 23.0545 4.09734 22.1209C4.68854 21.1873 5.0024 20.1051 5.0024 19C5.0024 17.895 4.68854 16.8127 4.09734 15.8792C3.50615 14.9456 2.66195 14.1991 1.66301 13.7267L0.333008 13.0967V0.333374ZM4.99967 5.00004V10.2687C7.81134 12.1494 9.66634 15.3554 9.66634 19C9.66729 20.7271 9.24185 22.4277 8.42776 23.9508C7.61368 25.474 6.43614 26.7726 4.99967 27.7314V33H46.9997V27.7314C45.5632 26.7726 44.3857 25.474 43.5716 23.9508C42.7575 22.4277 42.3321 20.7271 42.333 19C42.333 15.3577 44.188 12.1494 46.9997 10.2687V5.00004H4.99967ZM16.6663 12H35.333V16.6667H16.6663V12ZM16.6663 21.3334H35.333V26H16.6663V21.3334Z" fill="#EB0028"/>
</svg>
