<svg width="56" height="56" viewBox="0 0 56 56" fill="none" xmlns="http://www.w3.org/2000/svg">
<path d="M28 3.5C30.3206 3.5 32.5462 4.42187 34.1872 6.06282C35.8281 7.70376 36.75 9.92936 36.75 12.25V14H19.25V12.25C19.25 9.92936 20.1719 7.70376 21.8128 6.06282C23.4538 4.42187 25.6794 3.5 28 3.5ZM40.25 14V12.25C40.25 9.0011 38.9594 5.88526 36.6621 3.58794C34.3647 1.29062 31.2489 0 28 0C24.7511 0 21.6353 1.29062 19.3379 3.58794C17.0406 5.88526 15.75 9.0011 15.75 12.25V14H3.5V49C3.5 50.8565 4.2375 52.637 5.55025 53.9497C6.86301 55.2625 8.64348 56 10.5 56H45.5C47.3565 56 49.137 55.2625 50.4497 53.9497C51.7625 52.637 52.5 50.8565 52.5 49V14H40.25ZM7 17.5H49V49C49 49.9283 48.6312 50.8185 47.9749 51.4749C47.3185 52.1312 46.4283 52.5 45.5 52.5H10.5C9.57174 52.5 8.6815 52.1312 8.02513 51.4749C7.36875 50.8185 7 49.9283 7 49V17.5Z" fill="#EB0028"/>
</svg>
