<svg width="52" height="50" viewBox="0 0 52 50" fill="none" xmlns="http://www.w3.org/2000/svg">
<path d="M8.50033 15.6667V26.1667M43.5003 15.6667V26.1667M2.66699 2.83337H49.3337V12.1667L47.7027 13.1467C46.4334 13.9083 44.9811 14.3105 43.5009 14.3105C42.0207 14.3105 40.5684 13.9083 39.2992 13.1467L37.667 12.1667L36.036 13.1467C34.7668 13.9083 33.3144 14.3105 31.8342 14.3105C30.3541 14.3105 28.9017 13.9083 27.6325 13.1467L26.0003 12.1667L24.3693 13.1467C23.1001 13.9083 21.6477 14.3105 20.1676 14.3105C18.6874 14.3105 17.2351 13.9083 15.9658 13.1467L14.3337 12.1667L12.7015 13.1467C11.4324 13.908 9.98027 14.3102 8.50033 14.3102C7.02038 14.3102 5.56826 13.908 4.29916 13.1467L2.66699 12.1667V2.83337ZM5.00033 26.1667H47.0003V47.1667H5.00033V26.1667Z" stroke="#EB0028" stroke-width="4" stroke-linecap="round" stroke-linejoin="round"/>
</svg>
