<svg width="46" height="38" viewBox="0 0 46 38" fill="none" xmlns="http://www.w3.org/2000/svg">
<path d="M30.7284 14.4062L20.2284 7.40625C20.0307 7.27429 19.8007 7.19853 19.5632 7.18708C19.3258 7.17562 19.0896 7.22889 18.88 7.3412C18.6705 7.45351 18.4953 7.62064 18.3734 7.82474C18.2514 8.02884 18.1871 8.26223 18.1875 8.5V22.5C18.1871 22.7378 18.2514 22.9712 18.3734 23.1753C18.4953 23.3794 18.6705 23.5465 18.88 23.6588C19.0896 23.7711 19.3258 23.8244 19.5632 23.8129C19.8007 23.8015 20.0307 23.7257 20.2284 23.5938L30.7284 16.5938C30.9089 16.474 31.057 16.3115 31.1594 16.1207C31.2618 15.9298 31.3154 15.7166 31.3154 15.5C31.3154 15.2834 31.2618 15.0702 31.1594 14.8793C31.057 14.6885 30.9089 14.526 30.7284 14.4062ZM20.8125 20.0478V10.9522L27.6331 15.5L20.8125 20.0478ZM42.25 0.1875H3.75C2.93777 0.1875 2.15882 0.510155 1.58449 1.08449C1.01016 1.65882 0.6875 2.43777 0.6875 3.25V27.75C0.6875 28.5622 1.01016 29.3412 1.58449 29.9155C2.15882 30.4898 2.93777 30.8125 3.75 30.8125H42.25C43.0622 30.8125 43.8412 30.4898 44.4155 29.9155C44.9898 29.3412 45.3125 28.5622 45.3125 27.75V3.25C45.3125 2.43777 44.9898 1.65882 44.4155 1.08449C43.8412 0.510155 43.0622 0.1875 42.25 0.1875ZM42.6875 27.75C42.6875 27.866 42.6414 27.9773 42.5594 28.0594C42.4773 28.1414 42.366 28.1875 42.25 28.1875H3.75C3.63397 28.1875 3.52269 28.1414 3.44064 28.0594C3.35859 27.9773 3.3125 27.866 3.3125 27.75V3.25C3.3125 3.13397 3.35859 3.02269 3.44064 2.94064C3.52269 2.85859 3.63397 2.8125 3.75 2.8125H42.25C42.366 2.8125 42.4773 2.85859 42.5594 2.94064C42.6414 3.02269 42.6875 3.13397 42.6875 3.25V27.75ZM45.3125 36.5C45.3125 36.8481 45.1742 37.1819 44.9281 37.4281C44.6819 37.6742 44.3481 37.8125 44 37.8125H2C1.6519 37.8125 1.31806 37.6742 1.07192 37.4281C0.825781 37.1819 0.6875 36.8481 0.6875 36.5C0.6875 36.1519 0.825781 35.8181 1.07192 35.5719C1.31806 35.3258 1.6519 35.1875 2 35.1875H44C44.3481 35.1875 44.6819 35.3258 44.9281 35.5719C45.1742 35.8181 45.3125 36.1519 45.3125 36.5Z" fill="#EB0028"/>
</svg>
