<svg width="401" height="100" viewBox="0 0 401 100" fill="none" xmlns="http://www.w3.org/2000/svg">
<path d="M103.623 95.9991C98.0346 95.9991 93.2141 94.7657 89.1612 92.2987C85.1336 89.8066 82.0247 86.3328 79.8347 81.8772C77.6698 77.3964 76.5874 72.1856 76.5874 66.2449C76.5874 60.3041 77.6698 55.0681 79.8347 50.537C82.0247 45.9807 85.0706 42.4314 88.9724 39.8889C92.8994 37.3213 97.4808 36.0375 102.717 36.0375C105.738 36.0375 108.721 36.5409 111.666 37.5478C114.611 38.5548 117.292 40.191 119.708 42.4565C122.125 44.6969 124.051 47.6673 125.486 51.3677C126.92 55.0681 127.638 59.6244 127.638 65.0366V68.8125H82.931V61.1096H118.576C118.576 57.8371 117.921 54.9171 116.612 52.3495C115.328 49.7818 113.491 47.7554 111.099 46.2702C108.733 44.785 105.939 44.0424 102.717 44.0424C99.1674 44.0424 96.0963 44.9235 93.5035 46.6856C90.9359 48.4225 88.9598 50.6881 87.5753 53.4822C86.1908 56.2764 85.4986 59.272 85.4986 62.4689V67.6042C85.4986 71.9843 86.2538 75.6973 87.7641 78.7432C89.2997 81.7639 91.4268 84.0672 94.1454 85.6531C96.8641 87.2138 100.023 87.9942 103.623 87.9942C105.964 87.9942 108.079 87.6669 109.967 87.0124C111.88 86.3328 113.529 85.3259 114.913 83.9917C116.298 82.6324 117.367 80.9458 118.123 78.932L126.732 81.3486C125.825 84.2686 124.302 86.8362 122.163 89.0514C120.023 91.2415 117.38 92.9532 114.233 94.1867C111.087 95.395 107.55 95.9991 103.623 95.9991Z" fill="#FF0000"/>
<path d="M145.148 17.46V94.7909H135.784V17.46H145.148Z" fill="black"/>
<path d="M164.857 59.9013V94.7908H155.946V36.7927H164.555V45.8549H165.31C166.669 42.9097 168.734 40.5434 171.503 38.7561C174.272 36.9437 177.846 36.0375 182.226 36.0375C186.153 36.0375 189.589 36.843 192.535 38.4541C195.48 40.04 197.77 42.4565 199.407 45.7038C201.043 48.926 201.861 53.004 201.861 57.9378V94.7908H192.95V58.542C192.95 53.9857 191.767 50.4363 189.4 47.8939C187.034 45.3262 183.787 44.0424 179.659 44.0424C176.814 44.0424 174.272 44.6592 172.031 45.8926C169.816 47.1261 168.067 48.926 166.783 51.2922C165.499 53.6584 164.857 56.5282 164.857 59.9013Z" fill="black"/>
<path d="M258.232 36.7926L236.784 94.7908H227.722L206.275 36.7926H215.941L231.951 83.0099H232.555L248.565 36.7926H258.232Z" fill="black"/>
<path d="M286.513 95.9991C280.925 95.9991 276.104 94.7657 272.051 92.2987C268.024 89.8066 264.915 86.3328 262.725 81.8772C260.56 77.3964 259.478 72.1856 259.478 66.2449C259.478 60.3041 260.56 55.0681 262.725 50.537C264.915 45.9807 267.961 42.4314 271.863 39.8889C275.79 37.3213 280.371 36.0375 285.607 36.0375C288.628 36.0375 291.611 36.5409 294.556 37.5478C297.501 38.5548 300.182 40.191 302.599 42.4565C305.015 44.6969 306.941 47.6673 308.376 51.3677C309.811 55.0681 310.528 59.6244 310.528 65.0366V68.8125H265.821V61.1096H301.466C301.466 57.8371 300.811 54.9171 299.502 52.3495C298.219 49.7818 296.381 47.7554 293.989 46.2702C291.623 44.785 288.829 44.0424 285.607 44.0424C282.058 44.0424 278.986 44.9235 276.394 46.6856C273.826 48.4225 271.85 50.6881 270.465 53.4822C269.081 56.2764 268.389 59.272 268.389 62.4689V67.6042C268.389 71.9843 269.144 75.6973 270.654 78.7432C272.19 81.7639 274.317 84.0672 277.036 85.6531C279.754 87.2138 282.913 87.9942 286.513 87.9942C288.854 87.9942 290.969 87.6669 292.857 87.0124C294.77 86.3328 296.419 85.3259 297.803 83.9917C299.188 82.6324 300.258 80.9458 301.013 78.932L309.622 81.3486C308.716 84.2686 307.193 86.8362 305.053 89.0514C302.913 91.2415 300.27 92.9532 297.123 94.1867C293.977 95.395 290.44 95.9991 286.513 95.9991Z" fill="black"/>
<path d="M326.267 59.9013V94.7908H317.356V36.7927H325.965V45.8549H326.72C328.08 42.9097 330.144 40.5434 332.913 38.7561C335.682 36.9437 339.256 36.0375 343.636 36.0375C347.563 36.0375 350.999 36.843 353.945 38.4541C356.89 40.04 359.181 42.4565 360.817 45.7038C362.453 48.926 363.271 53.004 363.271 57.9378V94.7908H354.36V58.542C354.36 53.9857 353.177 50.4363 350.811 47.8939C348.444 45.3262 345.197 44.0424 341.069 44.0424C338.224 44.0424 335.682 44.6592 333.441 45.8926C331.226 47.1261 329.477 48.926 328.193 51.2922C326.909 53.6584 326.267 56.5282 326.267 59.9013Z" fill="black"/>
<path d="M399.549 36.7926V44.3445H369.493V36.7926H399.549ZM378.253 22.8972H387.164V78.1767C387.164 80.694 387.529 82.582 388.259 83.8406C389.014 85.0741 389.971 85.9048 391.129 86.3327C392.312 86.7355 393.558 86.9369 394.867 86.9369C395.849 86.9369 396.654 86.8865 397.283 86.7858C397.913 86.66 398.416 86.5593 398.794 86.4838L400.606 94.4887C400.002 94.7153 399.159 94.9418 398.076 95.1684C396.994 95.4201 395.622 95.546 393.961 95.546C391.443 95.546 388.976 95.0048 386.56 93.9223C384.168 92.8399 382.18 91.1911 380.594 88.9759C379.033 86.7607 378.253 83.9665 378.253 80.5933V22.8972Z" fill="black"/>
<path fill-rule="evenodd" clip-rule="evenodd" d="M50.6001 18.5808C54.4706 21.0717 57.512 24.6584 59.3366 28.8841C61.1612 33.1097 61.6866 37.7829 60.8457 42.3081C60.0047 46.8334 57.8357 51.0059 54.6148 54.2939C51.3939 57.582 47.2671 59.8367 42.7601 60.7708L41.3801 54.7708C44.1384 54.2145 46.7162 52.9846 48.884 51.1907C51.0518 49.3968 52.7422 47.0945 53.8047 44.4889C54.8671 41.8834 55.2685 39.0555 54.9733 36.2573C54.678 33.459 53.6951 30.7772 52.1123 28.4508C50.5294 26.1244 48.3957 24.2256 45.9013 22.9236C43.4068 21.6217 40.629 20.9569 37.8154 20.9886C35.0017 21.0203 32.2396 21.7474 29.7751 23.1052C27.3106 24.463 25.2202 26.4094 23.6901 28.7708C18.6901 36.5608 20.8501 47.4608 28.8301 52.3808L25.4701 57.5108C20.2984 54.1784 16.6623 48.9279 15.3617 42.9146C14.0612 36.9012 15.2027 30.6175 18.5351 25.4458C21.8675 20.2741 27.118 16.638 33.1313 15.3374C39.1447 14.0369 45.4284 15.1784 50.6001 18.5108" fill="#FF0000"/>
<path fill-rule="evenodd" clip-rule="evenodd" d="M40.0498 35.9308C40.473 36.3292 40.7687 36.8441 40.8994 37.4104C41.0301 37.9768 40.99 38.5691 40.7842 39.1127C40.5784 39.6563 40.216 40.1266 39.743 40.4644C39.27 40.8021 38.7075 40.992 38.1265 41.0102C37.5456 41.0283 36.9723 40.8739 36.4791 40.5663C35.9859 40.2588 35.5949 39.812 35.3556 39.2824C35.1162 38.7527 35.0392 38.164 35.1343 37.5906C35.2294 37.0172 35.4923 36.4849 35.8898 36.0608C36.1542 35.7788 36.4716 35.5517 36.8239 35.3925C37.1762 35.2333 37.5565 35.1451 37.9429 35.133C38.3293 35.121 38.7142 35.1852 39.0758 35.3221C39.4373 35.459 39.7683 35.6659 40.0498 35.9308ZM46.1298 29.4508C47.8379 31.0499 49.0335 33.1197 49.5653 35.3982C50.097 37.6768 49.9412 40.0619 49.1174 42.252C48.2936 44.442 46.8389 46.3385 44.9372 47.7017C43.0356 49.0649 40.7723 49.8336 38.4338 49.9106C36.0952 49.9875 33.7864 49.3692 31.7992 48.1339C29.8121 46.8986 28.2359 45.1018 27.2699 42.9706C26.304 40.8395 25.9918 38.4698 26.3727 36.1612C26.7535 33.8526 27.8105 31.7087 29.4098 30.0008C30.4709 28.8658 31.7454 27.9511 33.1603 27.3091C34.5752 26.667 36.1028 26.3103 37.6558 26.2592C39.2087 26.2081 40.7565 26.4637 42.2106 27.0114C43.6646 27.559 44.9964 28.388 46.1298 29.4508Z" fill="#FF0000"/>
<path fill-rule="evenodd" clip-rule="evenodd" d="M0 35.6208C0.325576 30.628 1.63141 25.7481 3.84295 21.2599C6.05449 16.7717 9.12841 12.763 12.8892 9.46278C16.65 6.16256 21.024 3.63543 25.7615 2.02567C30.499 0.415918 35.5071 -0.244934 40.5 0.0808505L39.79 11.0009C32.5948 10.532 25.5081 12.9404 20.0884 17.6962C14.6687 22.452 11.36 29.1658 10.89 36.3609L0 35.6208Z" fill="#FF0000"/>
<path fill-rule="evenodd" clip-rule="evenodd" d="M65.82 64.1409C62.6142 67.5709 58.8039 70.3811 54.58 72.4309L69.38 99.3209H53.44L41 76.0709C37.3139 76.3405 33.6083 76.071 30 75.2709V99.2709H15.52V68.7509C14.2925 67.8519 13.1172 66.8837 12 65.8509L19.47 57.9009C30.4 68.1709 47.59 68.0009 57.86 57.0009L65.82 64.1409Z" fill="#FF0000"/>
<path fill-rule="evenodd" clip-rule="evenodd" d="M64.1499 10.3309C70.2238 16.0478 74.2538 23.6001 75.6213 31.8285C76.9888 40.0569 75.6182 48.5067 71.7199 55.8809L63.3399 48.0009C65.3308 42.9373 65.7556 37.3926 64.5593 32.0849C63.3629 26.7771 60.6005 21.9508 56.6299 18.2309C57.2999 17.5209 64.0599 10.2309 64.1399 10.3209" fill="#FF0000"/>
</svg>
